<mxfile host="65bd71144e">
    <diagram id="4CTMleQ1p7r3mYRAUgCx" name="PÃ¡gina-1">
        <mxGraphModel dx="565" dy="449" grid="1" gridSize="10" guides="1" tooltips="1" connect="1" arrows="1" fold="1" page="1" pageScale="1" pageWidth="827" pageHeight="1169" math="0" shadow="0">
            <root>
                <mxCell id="0"/>
                <mxCell id="1" parent="0"/>
                <mxCell id="4" value="" style="edgeStyle=none;html=1;strokeColor=#000000;fontColor=#000000;" edge="1" parent="1" source="2" target="3">
                    <mxGeometry relative="1" as="geometry"/>
                </mxCell>
                <mxCell id="2" value="INICIO" style="ellipse;whiteSpace=wrap;html=1;fillColor=#FF9999;strokeColor=#000000;fontColor=#000000;" vertex="1" parent="1">
                    <mxGeometry x="240" y="80" width="80" height="40" as="geometry"/>
                </mxCell>
                <mxCell id="6" value="" style="edgeStyle=none;html=1;strokeColor=#000000;fontColor=#000000;" edge="1" parent="1" source="3" target="5">
                    <mxGeometry relative="1" as="geometry"/>
                </mxCell>
                <mxCell id="3" value="month = 0" style="whiteSpace=wrap;html=1;strokeColor=#000000;fontColor=#000000;fillColor=#9999FF;" vertex="1" parent="1">
                    <mxGeometry x="240" y="160" width="80" height="40" as="geometry"/>
                </mxCell>
                <mxCell id="8" value="" style="edgeStyle=none;html=1;strokeColor=#000000;fontColor=#000000;" edge="1" parent="1" source="5" target="7">
                    <mxGeometry relative="1" as="geometry"/>
                </mxCell>
                <mxCell id="5" value="c1, c2" style="shape=parallelogram;perimeter=parallelogramPerimeter;whiteSpace=wrap;html=1;fixedSize=1;strokeColor=#000000;fontColor=#000000;fillColor=#FFFF99;" vertex="1" parent="1">
                    <mxGeometry x="240" y="240" width="80" height="40" as="geometry"/>
                </mxCell>
                <mxCell id="10" value="" style="edgeStyle=none;html=1;strokeColor=#000000;fontColor=#000000;" edge="1" parent="1" source="7" target="9">
                    <mxGeometry relative="1" as="geometry"/>
                </mxCell>
                <mxCell id="13" value="" style="edgeStyle=none;html=1;endArrow=none;endFill=0;strokeColor=#000000;fontColor=#000000;" edge="1" parent="1" source="7" target="12">
                    <mxGeometry relative="1" as="geometry">
                        <Array as="points">
                            <mxPoint x="420" y="360"/>
                        </Array>
                    </mxGeometry>
                </mxCell>
                <mxCell id="7" value="c1 + c2 &amp;lt; c3" style="rhombus;whiteSpace=wrap;html=1;strokeColor=#000000;fontColor=#000000;fillColor=#CC99FF;" vertex="1" parent="1">
                    <mxGeometry x="240" y="320" width="80" height="80" as="geometry"/>
                </mxCell>
                <mxCell id="11" style="edgeStyle=none;html=1;exitX=0.5;exitY=1;exitDx=0;exitDy=0;endArrow=none;endFill=0;strokeColor=#000000;fontColor=#000000;" edge="1" parent="1" source="9">
                    <mxGeometry relative="1" as="geometry">
                        <mxPoint x="280" y="300" as="targetPoint"/>
                        <Array as="points">
                            <mxPoint x="280" y="540"/>
                            <mxPoint x="180" y="540"/>
                            <mxPoint x="180" y="300"/>
                        </Array>
                    </mxGeometry>
                </mxCell>
                <mxCell id="9" value="month += 1&lt;br&gt;c1 *= 1.03&lt;br&gt;c2 *= 1.04" style="whiteSpace=wrap;html=1;strokeColor=#000000;fontColor=#000000;fillColor=#9999FF;" vertex="1" parent="1">
                    <mxGeometry x="220" y="440" width="120" height="60" as="geometry"/>
                </mxCell>
                <mxCell id="15" value="" style="edgeStyle=none;html=1;endArrow=none;endFill=0;strokeColor=#000000;fontColor=#000000;" edge="1" parent="1" source="12" target="14">
                    <mxGeometry relative="1" as="geometry"/>
                </mxCell>
                <mxCell id="12" value="month" style="shape=document;whiteSpace=wrap;html=1;boundedLbl=1;strokeColor=#000000;fontColor=#000000;fillColor=#FFFF99;" vertex="1" parent="1">
                    <mxGeometry x="380" y="400" width="80" height="40" as="geometry"/>
                </mxCell>
                <mxCell id="14" value="FIN" style="ellipse;whiteSpace=wrap;html=1;strokeColor=#000000;fontColor=#000000;fillColor=#FF9999;" vertex="1" parent="1">
                    <mxGeometry x="380" y="480" width="80" height="40" as="geometry"/>
                </mxCell>
                <mxCell id="16" value="False" style="text;html=1;align=center;verticalAlign=middle;resizable=0;points=[];autosize=1;strokeColor=none;fillColor=none;fontColor=#000000;" vertex="1" parent="1">
                    <mxGeometry x="315" y="340" width="50" height="20" as="geometry"/>
                </mxCell>
                <mxCell id="17" value="True" style="text;html=1;align=center;verticalAlign=middle;resizable=0;points=[];autosize=1;strokeColor=none;fillColor=none;fontColor=#000000;" vertex="1" parent="1">
                    <mxGeometry x="280" y="400" width="40" height="20" as="geometry"/>
                </mxCell>
            </root>
        </mxGraphModel>
    </diagram>
</mxfile>